<svg id="visual" viewBox="0 0 1920 1080" width="1920" height="1080" xmlns="http://www.w3.org/2000/svg" xmlns:xlink="http://www.w3.org/1999/xlink" version="1.1"><rect x="0" y="0" width="1920" height="1080" fill="#FFFFFF"></rect><defs><linearGradient id="grad1_0" x1="43.8%" y1="0%" x2="100%" y2="100%"><stop offset="14.444444444444446%" stop-color="#4c647b" stop-opacity="1"></stop><stop offset="85.55555555555554%" stop-color="#4c647b" stop-opacity="1"></stop></linearGradient></defs><defs><linearGradient id="grad1_1" x1="43.8%" y1="0%" x2="100%" y2="100%"><stop offset="14.444444444444446%" stop-color="#4c647b" stop-opacity="1"></stop><stop offset="85.55555555555554%" stop-color="#8595a5" stop-opacity="1"></stop></linearGradient></defs><defs><linearGradient id="grad1_2" x1="43.8%" y1="0%" x2="100%" y2="100%"><stop offset="14.444444444444446%" stop-color="#c1c8d1" stop-opacity="1"></stop><stop offset="85.55555555555554%" stop-color="#8595a5" stop-opacity="1"></stop></linearGradient></defs><defs><linearGradient id="grad1_3" x1="43.8%" y1="0%" x2="100%" y2="100%"><stop offset="14.444444444444446%" stop-color="#c1c8d1" stop-opacity="1"></stop><stop offset="85.55555555555554%" stop-color="#ffffff" stop-opacity="1"></stop></linearGradient></defs><defs><linearGradient id="grad2_0" x1="0%" y1="0%" x2="56.3%" y2="100%"><stop offset="14.444444444444446%" stop-color="#4c647b" stop-opacity="1"></stop><stop offset="85.55555555555554%" stop-color="#4c647b" stop-opacity="1"></stop></linearGradient></defs><defs><linearGradient id="grad2_1" x1="0%" y1="0%" x2="56.3%" y2="100%"><stop offset="14.444444444444446%" stop-color="#8595a5" stop-opacity="1"></stop><stop offset="85.55555555555554%" stop-color="#4c647b" stop-opacity="1"></stop></linearGradient></defs><defs><linearGradient id="grad2_2" x1="0%" y1="0%" x2="56.3%" y2="100%"><stop offset="14.444444444444446%" stop-color="#8595a5" stop-opacity="1"></stop><stop offset="85.55555555555554%" stop-color="#c1c8d1" stop-opacity="1"></stop></linearGradient></defs><defs><linearGradient id="grad2_3" x1="0%" y1="0%" x2="56.3%" y2="100%"><stop offset="14.444444444444446%" stop-color="#ffffff" stop-opacity="1"></stop><stop offset="85.55555555555554%" stop-color="#c1c8d1" stop-opacity="1"></stop></linearGradient></defs><g transform="translate(1920, 0)"><path d="M0 972C-104.4 914.7 -208.8 857.3 -341 823.2C-473.2 789 -633.1 778.1 -687.3 687.3C-741.5 596.5 -689.9 426 -719.7 298.1C-749.5 170.3 -860.8 85.1 -972 0L0 0Z" fill="#e0e3e8"></path><path d="M0 729C-78.3 686 -156.6 643 -255.7 617.4C-354.9 591.8 -474.8 583.6 -515.5 515.5C-556.1 447.4 -517.4 319.5 -539.8 223.6C-562.1 127.7 -645.6 63.8 -729 0L0 0Z" fill="#a3aebb"></path><path d="M0 486C-52.2 457.3 -104.4 428.7 -170.5 411.6C-236.6 394.5 -316.6 389 -343.7 343.7C-370.7 298.3 -344.9 213 -359.9 149.1C-374.8 85.1 -430.4 42.6 -486 0L0 0Z" fill="#697c90"></path><path d="M0 243C-26.1 228.7 -52.2 214.3 -85.2 205.8C-118.3 197.3 -158.3 194.5 -171.8 171.8C-185.4 149.1 -172.5 106.5 -179.9 74.5C-187.4 42.6 -215.2 21.3 -243 0L0 0Z" fill="#4c647b"></path></g><g transform="translate(0, 1080)"><path d="M0 -972C93.5 -870.7 187 -769.5 302.3 -729.9C417.7 -690.2 554.8 -712.2 663.3 -663.3C771.7 -614.3 851.3 -494.3 898 -372C944.7 -249.6 958.3 -124.8 972 0L0 0Z" fill="#e0e3e8"></path><path d="M0 -729C70.1 -653.1 140.2 -577.1 226.7 -547.4C313.2 -517.7 416.1 -534.2 497.4 -497.4C578.8 -460.7 638.5 -370.8 673.5 -279C708.5 -187.2 718.8 -93.6 729 0L0 0Z" fill="#a3aebb"></path><path d="M0 -486C46.7 -435.4 93.5 -384.7 151.2 -364.9C208.8 -345.1 277.4 -356.1 331.6 -331.6C385.8 -307.1 425.7 -247.2 449 -186C472.3 -124.8 479.2 -62.4 486 0L0 0Z" fill="#697c90"></path><path d="M0 -243C23.4 -217.7 46.7 -192.4 75.6 -182.5C104.4 -172.6 138.7 -178.1 165.8 -165.8C192.9 -153.6 212.8 -123.6 224.5 -93C236.2 -62.4 239.6 -31.2 243 0L0 0Z" fill="#4c647b"></path></g></svg>