<svg id="visual" viewBox="0 0 1920 1080" width="1920" height="1080" xmlns="http://www.w3.org/2000/svg" xmlns:xlink="http://www.w3.org/1999/xlink" version="1.1"><rect x="0" y="0" width="1920" height="1080" fill="#f2effb"></rect><defs><linearGradient id="grad1_0" x1="43.8%" y1="0%" x2="100%" y2="100%"><stop offset="14.444444444444446%" stop-color="#f2effb" stop-opacity="1"></stop><stop offset="85.55555555555554%" stop-color="#f2effb" stop-opacity="1"></stop></linearGradient></defs><defs><linearGradient id="grad2_0" x1="0%" y1="0%" x2="56.3%" y2="100%"><stop offset="14.444444444444446%" stop-color="#f2effb" stop-opacity="1"></stop><stop offset="85.55555555555554%" stop-color="#f2effb" stop-opacity="1"></stop></linearGradient></defs><g transform="translate(1920, 0)"><path d="M0 648C-114.8 631.9 -229.6 615.8 -324 561.2C-418.4 506.6 -492.4 413.4 -543 313.5C-593.6 213.6 -620.8 106.8 -648 0L0 0Z" fill="#bfafe9"></path></g><g transform="translate(0, 1080)"><path d="M0 -648C93.2 -597.2 186.4 -546.5 288 -498.8C389.6 -451.2 499.8 -406.6 561.2 -324C622.6 -241.4 635.3 -120.7 648 0L0 0Z" fill="#bfafe9"></path></g></svg>